<svg width="512" height="512" viewBox="0 0 512 512" fill="none" xmlns="http://www.w3.org/2000/svg">
  <defs>
    <linearGradient id="gold" x1="122" y1="110" x2="322" y2="366" gradientUnits="userSpaceOnUse">
      <stop stop-color="#FFF4D0"/>
      <stop offset="0.55" stop-color="#EBC66A"/>
      <stop offset="1" stop-color="#D18B1F"/>
    </linearGradient>
  </defs>

  <rect x="36" y="36" width="440" height="440" rx="104" fill="#0D121B"/>
  <rect x="36" y="36" width="440" height="440" rx="104" stroke="#C99735" stroke-opacity="0.18" stroke-width="2"/>

  <g opacity="0.16">
    <rect x="62" y="126" width="7" height="18" rx="3.5" fill="#D7A94A"/>
    <rect x="62" y="160" width="7" height="18" rx="3.5" fill="#D7A94A"/>
    <rect x="62" y="194" width="7" height="18" rx="3.5" fill="#D7A94A"/>
    <rect x="62" y="228" width="7" height="18" rx="3.5" fill="#D7A94A"/>
    <rect x="443" y="126" width="7" height="18" rx="3.5" fill="#D7A94A"/>
    <rect x="443" y="160" width="7" height="18" rx="3.5" fill="#D7A94A"/>
    <rect x="443" y="194" width="7" height="18" rx="3.5" fill="#D7A94A"/>
    <rect x="443" y="228" width="7" height="18" rx="3.5" fill="#D7A94A"/>
  </g>

  <text x="118" y="330" fill="url(#gold)" font-family="'Baskerville', 'Georgia', 'Times New Roman', serif" font-size="252" font-style="italic" font-weight="700">5</text>
  <path d="M118 358H338" stroke="#C99735" stroke-opacity="0.7" stroke-width="5" stroke-linecap="round"/>
</svg>
