<svg width="512" height="512" viewBox="0 0 512 512" fill="none" xmlns="http://www.w3.org/2000/svg">
  <defs>
    <linearGradient id="bg" x1="74" y1="48" x2="442" y2="462" gradientUnits="userSpaceOnUse">
      <stop stop-color="#0A101B"/>
      <stop offset="1" stop-color="#182740"/>
    </linearGradient>
    <linearGradient id="gold" x1="141" y1="100" x2="322" y2="387" gradientUnits="userSpaceOnUse">
      <stop stop-color="#FFF4C7"/>
      <stop offset="0.5" stop-color="#F6C85F"/>
      <stop offset="1" stop-color="#E38B19"/>
    </linearGradient>
  </defs>

  <rect x="36" y="36" width="440" height="440" rx="108" fill="url(#bg)"/>
  <rect x="36" y="36" width="440" height="440" rx="108" stroke="#EBC46A" stroke-opacity="0.2" stroke-width="3"/>

  <g opacity="0.2">
    <rect x="64" y="124" width="8" height="20" rx="4" fill="#F5C65E"/>
    <rect x="64" y="164" width="8" height="20" rx="4" fill="#F5C65E"/>
    <rect x="64" y="204" width="8" height="20" rx="4" fill="#F5C65E"/>
    <rect x="64" y="244" width="8" height="20" rx="4" fill="#F5C65E"/>
    <rect x="440" y="124" width="8" height="20" rx="4" fill="#F5C65E"/>
    <rect x="440" y="164" width="8" height="20" rx="4" fill="#F5C65E"/>
    <rect x="440" y="204" width="8" height="20" rx="4" fill="#F5C65E"/>
    <rect x="440" y="244" width="8" height="20" rx="4" fill="#F5C65E"/>
  </g>

  <text x="112" y="318" fill="url(#gold)" font-family="Georgia, 'Times New Roman', serif" font-size="248" font-style="italic" font-weight="700">5</text>
  <path d="M112 350H338" stroke="#F4C55C" stroke-opacity="0.5" stroke-width="6" stroke-linecap="round"/>
</svg>
