<svg width="1200" height="320" viewBox="0 0 1200 320" fill="none" xmlns="http://www.w3.org/2000/svg">
  <defs>
    <linearGradient id="bg" x1="84" y1="26" x2="1117" y2="300" gradientUnits="userSpaceOnUse">
      <stop stop-color="#0A101B"/>
      <stop offset="1" stop-color="#162338"/>
    </linearGradient>
    <linearGradient id="gold" x1="248" y1="80" x2="894" y2="240" gradientUnits="userSpaceOnUse">
      <stop stop-color="#FFF4C7"/>
      <stop offset="0.45" stop-color="#F6C85F"/>
      <stop offset="1" stop-color="#E38B19"/>
    </linearGradient>
    <linearGradient id="line" x1="210" y1="245" x2="910" y2="245" gradientUnits="userSpaceOnUse">
      <stop stop-color="#F6C85F" stop-opacity="0"/>
      <stop offset="0.18" stop-color="#F6C85F" stop-opacity="0.72"/>
      <stop offset="0.82" stop-color="#F6C85F" stop-opacity="0.72"/>
      <stop offset="1" stop-color="#F6C85F" stop-opacity="0"/>
    </linearGradient>
  </defs>

  <rect x="24" y="24" width="1152" height="272" rx="36" fill="url(#bg)"/>
  <rect x="24" y="24" width="1152" height="272" rx="36" stroke="#EBC46A" stroke-opacity="0.18" stroke-width="2"/>

  <g opacity="0.22">
    <rect x="58" y="72" width="10" height="22" rx="5" fill="#F4C55C"/>
    <rect x="58" y="112" width="10" height="22" rx="5" fill="#F4C55C"/>
    <rect x="58" y="152" width="10" height="22" rx="5" fill="#F4C55C"/>
    <rect x="58" y="192" width="10" height="22" rx="5" fill="#F4C55C"/>
    <rect x="1132" y="72" width="10" height="22" rx="5" fill="#F4C55C"/>
    <rect x="1132" y="112" width="10" height="22" rx="5" fill="#F4C55C"/>
    <rect x="1132" y="152" width="10" height="22" rx="5" fill="#F4C55C"/>
    <rect x="1132" y="192" width="10" height="22" rx="5" fill="#F4C55C"/>
  </g>

  <text x="124" y="190" fill="url(#gold)" font-family="Georgia, 'Times New Roman', serif" font-size="144" font-style="italic" font-weight="700" letter-spacing="10">5572</text>
  <path d="M126 244H904" stroke="url(#line)" stroke-width="4" stroke-linecap="round"/>
  <text x="919" y="190" fill="#E7DDBB" font-family="Georgia, 'Times New Roman', serif" font-size="52" font-weight="700" letter-spacing="6">TV</text>
  <text x="920" y="232" fill="#92A0B6" font-family="Georgia, 'Times New Roman', serif" font-size="20" letter-spacing="4">CINEMA STREAM</text>
</svg>
