<svg width="1200" height="320" viewBox="0 0 1200 320" fill="none" xmlns="http://www.w3.org/2000/svg">
  <defs>
    <linearGradient id="gold" x1="112" y1="86" x2="886" y2="220" gradientUnits="userSpaceOnUse">
      <stop stop-color="#FFF4D0"/>
      <stop offset="0.52" stop-color="#EBC66A"/>
      <stop offset="1" stop-color="#D18B1F"/>
    </linearGradient>
    <linearGradient id="line" x1="106" y1="240" x2="900" y2="240" gradientUnits="userSpaceOnUse">
      <stop stop-color="#C99735" stop-opacity="0"/>
      <stop offset="0.15" stop-color="#C99735" stop-opacity="0.8"/>
      <stop offset="0.85" stop-color="#C99735" stop-opacity="0.8"/>
      <stop offset="1" stop-color="#C99735" stop-opacity="0"/>
    </linearGradient>
  </defs>

  <rect x="20" y="28" width="1160" height="264" rx="30" fill="#0D121B"/>
  <rect x="20" y="28" width="1160" height="264" rx="30" stroke="#C99735" stroke-opacity="0.18" stroke-width="2"/>

  <g opacity="0.16">
    <rect x="48" y="86" width="8" height="18" rx="4" fill="#D7A94A"/>
    <rect x="48" y="120" width="8" height="18" rx="4" fill="#D7A94A"/>
    <rect x="48" y="154" width="8" height="18" rx="4" fill="#D7A94A"/>
    <rect x="48" y="188" width="8" height="18" rx="4" fill="#D7A94A"/>
    <rect x="1144" y="86" width="8" height="18" rx="4" fill="#D7A94A"/>
    <rect x="1144" y="120" width="8" height="18" rx="4" fill="#D7A94A"/>
    <rect x="1144" y="154" width="8" height="18" rx="4" fill="#D7A94A"/>
    <rect x="1144" y="188" width="8" height="18" rx="4" fill="#D7A94A"/>
  </g>

  <text x="96" y="194" fill="url(#gold)" font-family="'Baskerville', 'Georgia', 'Times New Roman', serif" font-size="152" font-style="italic" font-weight="700" letter-spacing="6">5572</text>
  <path d="M108 236H896" stroke="url(#line)" stroke-width="3" stroke-linecap="round"/>
  <text x="920" y="188" fill="#E8DEC0" font-family="'Baskerville', 'Georgia', 'Times New Roman', serif" font-size="46" font-weight="700" letter-spacing="8">TV</text>
  <text x="920" y="226" fill="#8D98A8" font-family="'Helvetica Neue', 'Arial', sans-serif" font-size="18" font-weight="500" letter-spacing="4">CINEMA</text>
</svg>
